<svg width="24" height="24" viewBox="0 0 24 24" fill="none" xmlns="http://www.w3.org/2000/svg">
<path d="M20 12C20 13.1046 16.4183 14 12 14C7.58174 14 4 13.1046 4 12" stroke="#00baba" stroke-width="2"/>
<path d="M20 4V19M4 19V4" stroke="#465A71" stroke-width="2"/>
<path d="M12 7C16.4183 7 20 5.88071 20 4.5C20 3.11929 16.4183 2 12 2C7.58172 2 4 3.11929 4 4.5C4 5.88071 7.58172 7 12 7Z" stroke="#465A71" stroke-width="2"/>
<path d="M20 19C20 20.6569 16.4183 22 12 22C7.58172 22 4 20.6569 4 19" stroke="#465A71" stroke-width="2"/>
</svg>
