<svg width="40" height="40" viewBox="0 0 40 40" fill="none" xmlns="http://www.w3.org/2000/svg">
<path d="M31.84 5H7.84C5.16694 5 3 7.16694 3 9.84V12.57C3 15.2431 5.16694 17.41 7.84 17.41H31.84C34.5131 17.41 36.68 15.2431 36.68 12.57V9.84C36.68 7.16694 34.5131 5 31.84 5Z" stroke="#344456" stroke-width="3" stroke-miterlimit="10" stroke-linecap="round"/>
<path opacity="0.7" d="M30.2598 13.1203C31.3202 13.1203 32.1798 12.2607 32.1798 11.2003C32.1798 10.1399 31.3202 9.28027 30.2598 9.28027C29.1995 9.28027 28.3398 10.1399 28.3398 11.2003C28.3398 12.2607 29.1995 13.1203 30.2598 13.1203Z" fill="#7A90AA"/>
<path opacity="0.7" d="M24.3106 13.1203C25.371 13.1203 26.2306 12.2607 26.2306 11.2003C26.2306 10.1399 25.371 9.28027 24.3106 9.28027C23.2502 9.28027 22.3906 10.1399 22.3906 11.2003C22.3906 12.2607 23.2502 13.1203 24.3106 13.1203Z" fill="#00BABA"/>
<path d="M31.84 23.2598H7.84C5.16694 23.2598 3 25.4267 3 28.0998V30.8298C3 33.5028 5.16694 35.6698 7.84 35.6698H31.84C34.5131 35.6698 36.68 33.5028 36.68 30.8298V28.0998C36.68 25.4267 34.5131 23.2598 31.84 23.2598Z" stroke="#00BABA" stroke-width="3" stroke-miterlimit="10"/>
<path d="M30.2598 31.3908C31.3202 31.3908 32.1798 30.5312 32.1798 29.4708C32.1798 28.4104 31.3202 27.5508 30.2598 27.5508C29.1995 27.5508 28.3398 28.4104 28.3398 29.4708C28.3398 30.5312 29.1995 31.3908 30.2598 31.3908Z" fill="#344456"/>
<path opacity="0.7" d="M24.3106 31.3908C25.371 31.3908 26.2306 30.5312 26.2306 29.4708C26.2306 28.4104 25.371 27.5508 24.3106 27.5508C23.2502 27.5508 22.3906 28.4104 22.3906 29.4708C22.3906 30.5312 23.2502 31.3908 24.3106 31.3908Z" fill="#7A90AA"/>
</svg>
