<svg width="40" height="40" viewBox="0 0 40 40" fill="none" xmlns="http://www.w3.org/2000/svg">
<path d="M36.9016 29.9802C37.8864 27.4734 31.3508 21.2958 21.2339 16.2822C11.117 11.2685 3.14889 9.20933 2.16406 11.8057" stroke="#AAB8C9" stroke-width="3"/>
<path d="M2.16378 29.9802C1.17895 27.4734 7.71462 21.2958 17.8315 16.2822C27.9483 11.2685 35.9165 9.20933 36.9013 11.8057" stroke="#00BABA" stroke-width="3"/>
<path d="M19.6731 34.8433C27.9141 34.8433 34.5947 28.1626 34.5947 19.9216C34.5947 11.6806 27.9141 5 19.6731 5C11.4321 5 4.75146 11.6806 4.75146 19.9216C4.75146 28.1626 11.4321 34.8433 19.6731 34.8433Z" fill="white" stroke="#344456" stroke-width="3" stroke-linecap="round" stroke-linejoin="round"/>
<path d="M36.9016 11.8057C37.8864 14.3125 31.3508 20.49 21.2339 25.5037C11.117 30.5174 3.14889 32.5766 2.16406 29.9802" stroke="#00BABA" stroke-width="3"/>
<path d="M2.16378 11.8057C1.17895 14.3125 7.71462 20.49 17.8315 25.5037C27.9483 30.5174 35.9165 32.5766 36.9013 29.9802" stroke="#AAB8C9" stroke-width="3"/>
</svg>
