<svg width="40" height="40" viewBox="0 0 40 40" fill="none" xmlns="http://www.w3.org/2000/svg">
<path d="M29.33 4H10.35C6.29071 4 3 7.29071 3 11.35V23.16C3 27.2193 6.29071 30.51 10.35 30.51H29.33C33.3893 30.51 36.68 27.2193 36.68 23.16V11.35C36.68 7.29071 33.3893 4 29.33 4Z" fill="white"/>
<path d="M29.33 4H10.35C6.29071 4 3 7.29071 3 11.35V23.16C3 27.2193 6.29071 30.51 10.35 30.51H29.33C33.3893 30.51 36.68 27.2193 36.68 23.16V11.35C36.68 7.29071 33.3893 4 29.33 4Z" stroke="#344456" stroke-width="3" stroke-miterlimit="10" stroke-linecap="round"/>
<path d="M24.9211 18.3603L17.8111 22.4603C17.6147 22.5749 17.3914 22.6355 17.164 22.636C16.9366 22.6365 16.7131 22.5769 16.5161 22.4632C16.3192 22.3495 16.1558 22.1857 16.0425 21.9885C15.9292 21.7913 15.8701 21.5677 15.8711 21.3403V13.1303C15.8731 12.904 15.9341 12.6822 16.0481 12.4868C16.1621 12.2914 16.3251 12.1291 16.5211 12.0159C16.717 11.9028 16.9391 11.8428 17.1653 11.8418C17.3916 11.8408 17.6142 11.8989 17.8111 12.0103L24.9211 16.1203C25.1185 16.2331 25.2826 16.3961 25.3968 16.5928C25.5109 16.7895 25.571 17.0129 25.571 17.2403C25.571 17.4677 25.5109 17.691 25.3968 17.8877C25.2826 18.0844 25.1185 18.2474 24.9211 18.3603Z" stroke="#00BABA" stroke-width="3" stroke-miterlimit="10"/>
<path opacity="0.7" d="M6.11133 35.5195H33.2413" stroke="#7A90AA" stroke-width="3" stroke-miterlimit="10" stroke-linecap="round"/>
</svg>
